<svg width="19" height="44" viewBox="0 0 19 44" fill="none" xmlns="http://www.w3.org/2000/svg">
<path d="M16 0L12.6269 4.68566L18.3713 5.26404L16 0ZM3 14.966V14.466H1.90339L2.62252 15.2939L3 14.966ZM16 29.932L15.9655 30.4308L17.1677 30.5138L16.3775 29.6041L16 29.932ZM3 44L6.38025 39.3195L0.636675 38.7324L3 44ZM15.0606 4.37139C13.9538 9.43488 10.9413 11.9428 8.2059 13.2007C6.83096 13.8331 5.52252 14.1501 4.55733 14.3087C4.07541 14.3879 3.68103 14.4273 3.40933 14.4468C3.27354 14.4566 3.16857 14.4614 3.09884 14.4637C3.06398 14.4649 3.03794 14.4655 3.02128 14.4657C3.01295 14.4659 3.00696 14.4659 3.00339 14.466C3.00161 14.466 3.00043 14.466 2.99986 14.466C2.99957 14.466 2.99944 14.466 2.99947 14.466C2.99948 14.466 2.99961 14.466 2.99962 14.466C2.99979 14.466 3 14.466 3 14.966C3 15.466 3.00029 15.466 3.00062 15.466C3.00078 15.466 3.00115 15.466 3.00147 15.466C3.00212 15.466 3.00292 15.466 3.00388 15.466C3.0058 15.466 3.00834 15.466 3.01149 15.4659C3.0178 15.4659 3.02656 15.4658 3.03771 15.4656C3.06 15.4652 3.09183 15.4645 3.13265 15.4631C3.21428 15.4604 3.3319 15.4549 3.48104 15.4442C3.77919 15.4228 4.20401 15.3802 4.71946 15.2955C5.749 15.1263 7.14796 14.7879 8.62371 14.1093C11.5897 12.7453 14.8518 10.0093 16.0376 4.58495L15.0606 4.37139ZM2.62252 15.2939L15.6225 30.2599L16.3775 29.6041L3.37748 14.6381L2.62252 15.2939ZM16 29.932C16.0345 29.4332 16.0342 29.4331 16.0338 29.4331C16.0337 29.4331 16.0333 29.4331 16.033 29.4331C16.0323 29.433 16.0315 29.433 16.0306 29.4329C16.0287 29.4328 16.0262 29.4326 16.023 29.4324C16.0167 29.432 16.008 29.4315 15.9969 29.431C15.9746 29.4298 15.9428 29.4283 15.9021 29.4269C15.8206 29.424 15.7032 29.4213 15.5543 29.4217C15.2566 29.4225 14.8323 29.4357 14.3173 29.4846C13.2889 29.5824 11.8897 29.8235 10.412 30.3998C7.43812 31.5596 4.16545 34.0742 2.9698 39.4131L3.94563 39.6316C5.05611 34.6731 8.05459 32.3925 10.7753 31.3315C12.145 30.7973 13.4489 30.5717 14.4119 30.4802C14.8925 30.4345 15.2859 30.4224 15.557 30.4217C15.6925 30.4213 15.7973 30.4238 15.8669 30.4262C15.9016 30.4275 15.9276 30.4287 15.9443 30.4296C15.9526 30.43 15.9586 30.4304 15.9621 30.4306C15.9639 30.4307 15.9651 30.4308 15.9657 30.4308C15.966 30.4308 15.9661 30.4308 15.9661 30.4308C15.9661 30.4308 15.9659 30.4308 15.9659 30.4308C15.9658 30.4308 15.9655 30.4308 16 29.932Z" fill="black"/>
</svg>
